<?xml version="1.0" encoding="utf-8"?>
<!-- Generator: Adobe Illustrator 24.1.2, SVG Export Plug-In . SVG Version: 6.00 Build 0)  -->
<svg version="1.1" id="Layer_1" xmlns="http://www.w3.org/2000/svg" xmlns:xlink="http://www.w3.org/1999/xlink" x="0px" y="0px"
	 viewBox="0 0 600 600" style="enable-background:new 0 0 600 600;" xml:space="preserve">
<style type="text/css">
	.st0{fill:#DBDBDB;}
	.st1{fill:none;stroke:#000000;stroke-width:0.25;stroke-miterlimit:10;}
	.st2{fill:#FEFEFE;}
	.st3{fill:#CEDD78;}
	.st4{fill:#55BFE8;}
	.st5{fill:#88D2EF;}
	.st6{fill:#8ED4EF;}
	.st7{fill:#DEE8A4;}
	.st8{fill:#DDE8A2;}
	.st9{opacity:0.7;}
	.st10{clip-path:url(#SVGID_2_);}
	.st11{clip-path:url(#SVGID_4_);}
	.st12{clip-path:url(#SVGID_6_);}
	.st13{clip-path:url(#SVGID_8_);}
	.st14{font-family:'AntarcticanHeadline-Bold';}
	.st15{font-size:17px;}
	.st16{font-size:30px;}
	.st17{font-size:20px;}
	.st18{letter-spacing:-1;}
	.st19{font-size:21px;}
</style>
<rect x="79.1" y="0" class="st0" width="104.2" height="600"/>
<rect x="287.4" y="0" class="st0" width="104.2" height="600"/>
<rect x="495.8" y="0" class="st0" width="104.2" height="600"/>
<line class="st1" x1="0" y1="86.6" x2="600" y2="86.6"/>
<line class="st1" x1="0" y1="172.2" x2="600" y2="172.2"/>
<line class="st1" x1="0" y1="257.7" x2="600" y2="257.7"/>
<line class="st1" x1="0" y1="343.3" x2="600" y2="343.3"/>
<line class="st1" x1="0" y1="428.9" x2="600" y2="428.9"/>
<line class="st1" x1="0" y1="514.4" x2="600" y2="514.4"/>
<path d="M551.9,37c0-0.1,0.1-0.2,0.2-0.3c0,0,0,0,0,0c0.9,0,1.8,0,2.7,0c0.2,0,0.5,0.3,0.5,0.6c0.7,3,1.5,5.9,2.2,8.9v0.1
	c0,0.1,0.1,0.2,0.3,0.2c0.1,0,0.2-0.1,0.2-0.2c0-0.1,0-0.1,0-0.2c0.8-2.9,1.5-5.8,2.3-8.7c0-0.4,0.4-0.7,0.8-0.7c0,0,0.1,0,0.1,0
	c1.7,0,1.7,0,2.1,1.6c0.7,2.6,1.3,5.1,2.1,7.7c0,0.1,0.1,0.2,0.3,0.2c0.1,0,0.2-0.1,0.2-0.2l0.4-1.6c0.6-2.3,1.2-4.7,1.7-7
	c0.1-0.6,0.4-0.7,0.9-0.7c0.8,0,1.5,0,2.4,0c0.1,0,0.2,0.1,0.2,0.2c0,0,0,0,0,0.1l-1.1,4c-0.9,3.1-1.8,6.3-2.7,9.4
	c-0.1,0.5-0.3,0.7-0.9,0.7c-0.8-0.1-1.9,0.2-2.4-0.2s-0.5-1.5-0.8-2.3c-0.6-2.2-1.1-4.4-1.7-6.5c0,0,0,0,0-0.1
	c0-0.1-0.2-0.2-0.3-0.1c-0.1,0-0.1,0.1-0.1,0.1c-0.1,0.2-0.1,0.5-0.2,0.7c-0.6,2.5-1.3,5.1-1.9,7.6c-0.2,0.7-0.4,0.8-1.1,0.8
	c-0.8-0.1-1.8,0.2-2.3-0.2s-0.5-1.4-0.8-2.1c-1.1-3.7-2.1-7.5-3.2-11.2C552,37.4,551.9,37.2,551.9,37"/>
<path d="M540.7,46.7c0.6-1.8,1.2-3.5,1.7-5.3c0.1-0.5,0.6-0.9,1.1-0.8c1.5,0,1.5,0,2,1.5l1.6,4.9c0,0.1,0.2,0.2,0.3,0.1
	c0.1,0,0.1-0.1,0.1-0.1c0.1-0.2,0.1-0.3,0.2-0.5c0.5-1.7,1-3.5,1.4-5.2c0.1-0.5,0.3-0.7,0.8-0.7s1.2,0,1.8,0c0.1,0,0.2,0.1,0.2,0.2
	c0,0,0,0,0,0.1c0,0.1-0.1,0.3-0.1,0.4c-0.9,3-1.8,6-2.7,9c-0.1,0.5-0.5,0.8-0.9,0.7c0,0-0.1,0-0.1,0c-2.2,0-2.2,0-2.8-2l-1.3-4.4
	c0-0.1-0.2-0.2-0.3-0.1c-0.1,0-0.1,0.1-0.1,0.1v0.1c-0.6,1.9-1.2,3.8-1.8,5.7c-0.1,0.4-0.5,0.6-0.9,0.5c-2.3,0-2.3,0-2.9-2.1
	l-2.2-7.4l-0.2-0.6c0-0.1,0-0.2,0.2-0.3c0,0,0,0,0.1,0c0.8,0,1.5,0,2.2,0c0.2,0,0.4,0.3,0.5,0.6c0.5,1.8,1,3.6,1.5,5.5l0,0h0.6"/>
<path d="M583.1,36.7h2.2c0.1,0,0.2,0.1,0.2,0.2c0,0,0,0,0,0v4.4c0,0.1,0.1,0.2,0.2,0.2c0.1,0,0.1,0,0.1-0.1c1.7-1.6,4.4-1.5,6,0.2
	c0.3,0.4,0.6,0.8,0.8,1.2c0.8,1.8,0.8,3.9,0,5.7c-0.9,2.2-3.4,3.2-5.5,2.3c-0.4-0.2-0.9-0.4-1.2-0.8l-0.1-0.1
	c-0.1-0.1-0.2-0.1-0.3,0c0,0,0,0.1,0,0.1c0,0.2,0,0.3,0,0.5c0,0.1-0.1,0.2-0.2,0.2h-2.2c-0.1,0-0.2-0.1-0.2-0.2V37
	C582.9,36.9,583,36.8,583.1,36.7C583.1,36.8,583.1,36.8,583.1,36.7 M585.6,45.9c0,0.4,0,0.7,0,1.1c-0.1,0.7,0.3,1.4,1,1.6
	c1.3,0.7,2.9,0.3,3.6-0.9c0.1-0.1,0.1-0.2,0.1-0.3c0.8-1.7,0.1-3.8-1.4-4.4c-0.9-0.3-1.9-0.2-2.7,0.4c-0.8,0.5-0.6,1.2-0.7,1.8
	L585.6,45.9"/>
<path d="M518.1,40.4c3,0,5.5,2.4,5.5,5.4c0,2.9-2.2,5.3-5.1,5.5c-3,0.2-5.6-2-5.9-5c0-0.3,0-0.6,0-0.9
	C512.7,42.5,515.1,40.3,518.1,40.4C518.1,40.4,518.1,40.4,518.1,40.4 M520.9,46c0,0,0-0.1,0-0.1c0-1.2-0.7-2.3-1.8-2.9
	c-0.9-0.4-2.1-0.3-2.8,0.4c-1.2,1.4-1.2,3.4,0,4.8c1,1,2.6,0.9,3.5-0.1c0,0,0.1-0.1,0.1-0.2C520.4,47.3,520.7,46.6,520.9,46"/>
<path d="M581.1,46.7h-7.1c-0.1,0-0.2,0.1-0.2,0.2c0,0,0,0,0,0c0.1,0.7,0.6,1.4,1.2,1.7c1.5,0.8,2.9,0.5,4.4-0.4c0.1-0.1,0.2,0,0.3,0
	c0,0,0,0,0,0l0.9,1.3c0.1,0.1,0.1,0.2,0,0.3c-1.3,1-2.9,1.5-4.6,1.3c-2.7-0.1-5-2.3-5.1-5c-0.3-2.7,1.5-5.2,4.2-5.8
	c2.8-0.7,5.6,1.1,6.3,3.9c0.2,0.7,0.2,1.4,0.1,2.1C581.3,46.6,581.2,46.7,581.1,46.7 M574,44.8h4.5c0.1,0,0.2-0.1,0.2-0.2
	c0,0,0,0,0-0.1c-0.2-1.2-1.3-2.1-2.5-2c-1.2-0.1-2.3,0.8-2.5,2C573.8,44.6,573.8,44.8,574,44.8C574,44.8,574,44.8,574,44.8"/>
<path d="M532,40.9c0-0.1,0.1-0.2,0.2-0.2c0,0,0,0,0,0c0.8,0,1.4,0,2.1,0c0.1,0,0.4,0.2,0.4,0.3c0,3.2,0,6.5,0,9.8
	c0,0.1-0.1,0.2-0.2,0.2h-2.2c-0.1,0-0.2-0.1-0.2-0.2c0-0.2,0-0.3,0-0.5c0-0.1-0.1-0.2-0.2-0.2c0,0-0.1,0-0.1,0.1
	c-0.9,0.8-2.2,1.2-3.4,1.2c-1.6,0.2-3.1-1-3.3-2.6c0-0.2,0-0.4,0-0.6c0-2.2,0-4.5,0-6.8c0-0.2,0-0.3,0-0.5c0-0.1,0.1-0.2,0.2-0.2
	c0.7,0,1.3,0,2,0c0.2,0,0.4,0.4,0.4,0.6c0,1.4,0,2.8,0,4.3c0,0.4,0,0.9,0,1.3c0,1.2,0.4,1.7,1.2,2c1.1,0.2,2.3-0.1,3-1
	c0.1-0.2,0.1-0.5,0.1-0.7c0-1.8,0-3.7,0-5.5L532,40.9z"/>
<path d="M508.5,36.7h2.5c0.1,0,0.2,0.1,0.2,0.2c0,0.1,0,0.3,0,0.4c0,3,0,6,0,8.9c0,2-0.6,3.7-2.6,4.5c-2,0.9-4.4,0.6-6.1-0.8
	c-0.1-0.1-0.1-0.2-0.1-0.3l1.1-1.9c0.1-0.1,0.2-0.1,0.3-0.1c0,0,0,0,0,0c0.3,0.2,0.7,0.4,1,0.6c1.1,0.6,2.4,0.2,3-0.9
	c0.2-0.4,0.3-0.8,0.3-1.3c0-2.8,0-5.7,0-8.6v-0.7C508.2,36.8,508.3,36.7,508.5,36.7C508.4,36.7,508.4,36.7,508.5,36.7"/>
<path class="st2" d="M409.3,52.7h-7.1v-18c0-0.1,0-0.2,0.1-0.1c0,0,0.1,0,0.1,0h82.7c0.2,0,0.2,0,0.2,0.2c0,2.7,0,5.4,0,8.1
	c-0.1,0-0.1-0.1-0.1-0.2c-0.1-0.7-0.2-1.4-0.5-2.1c-0.4-1.2-1.1-2.3-2-3.2c-1.1-1.1-2.5-2-4-2.4c-0.7-0.2-1.4-0.3-2.1-0.3
	c-4.9-0.2-9,3.6-9.2,8.5c-0.2,3.4,1.7,6.6,4.6,8.2c1.1,0.6,2.3,1,3.5,1.1c3.6,0.3,7.1-1.5,8.7-4.8c0.5-0.9,0.8-2,0.9-3
	c0-0.1,0-0.3,0.1-0.4c0,2.8,0,5.5,0,8.2c0,0.2,0,0.2-0.2,0.2h-74.3c0-0.1,0.1-0.1,0.2-0.1c0.4,0,0.8-0.1,1.2-0.2
	c1-0.2,2-0.6,2.9-1.3c0.6-0.5,1.2-1.1,1.6-1.8c0.5-1,0.9-2.1,1-3.3c0-0.3,0-0.5,0-0.8c0-3.1,0-6.3,0-9.4c0-0.3-0.1-0.5-0.3-0.7
	c-0.2-0.1-0.4-0.2-0.6-0.1h-10c-0.4,0-0.8,0.3-0.8,0.7c0,0,0,0,0,0.1c0,0.9,0,1.8,0,2.7c0,0.4,0.4,0.8,0.8,0.8c0,0,0,0,0.1,0h5.4
	c0.5,0,0.9,0.5,0.9,1c0,1.7,0,3.4,0,5.1c0,1.7-1.3,3.2-3.1,3.3c-0.8,0.1-1.6-0.2-2.2-0.8c-0.5-0.4-0.8-1-1-1.7c-0.1-0.6-0.7-1-1.3-1
	h-2.3c-0.5-0.1-0.9,0.2-1,0.7c0,0.1,0,0.2,0,0.3c0,1.5,0.5,2.9,1.5,4c1.1,1.3,2.7,2.1,4.4,2.4c0.4,0.1,0.7,0.1,1.1,0.2"/>
<path d="M485.3,44.3c-0.1,0.2-0.1,0.4-0.1,0.7c-0.4,2.8-2.2,5.2-4.7,6.5c-1.3,0.7-2.8,1-4.2,1c-4.9,0-8.9-4.1-8.9-9
	c0-4.9,4.1-8.9,9-8.9c4.6,0,8.5,3.6,8.8,8.2c0,0,0,0.1,0,0.1V43c0,0.1,0,0.2,0,0.3v0.4c0,0.1,0,0.2,0,0.3L485.3,44.3z"/>
<path d="M409.3,52.7c-2-0.1-3.9-0.9-5.3-2.3c-1-1-1.7-2.4-1.8-3.9c0-0.2,0-0.5,0-0.8c0.1-0.4,0.4-0.7,0.8-0.7c0.9,0,1.8,0,2.6,0
	c0.5,0,1,0.4,1.1,0.9c0.2,0.6,0.5,1.1,0.9,1.6c1.1,1.2,3,1.2,4.2,0.1c0.2-0.2,0.4-0.4,0.5-0.7c0.4-0.6,0.5-1.2,0.5-1.9
	c0-1.6,0-3.2,0-4.8c0.1-0.5-0.3-0.9-0.8-1c-0.1,0-0.2,0-0.2,0h-5.2c-0.5,0.1-0.9-0.3-1-0.8c0-0.1,0-0.2,0-0.2c0-0.8,0-1.7,0-2.5
	c0-0.5,0.3-0.9,0.8-0.9c0,0,0.1,0,0.1,0h9.9c0.2,0,0.3,0,0.5,0c0.4,0.1,0.6,0.5,0.6,0.9c0,3.2,0,6.3,0,9.5c0,1.2-0.2,2.4-0.7,3.5
	c-0.8,1.9-2.5,3.2-4.5,3.7c-0.5,0.1-1.1,0.2-1.6,0.3c0,0-0.1,0-0.1,0h-0.1c-0.1,0-0.2,0-0.2,0h-0.9
	C409.4,52.6,409.3,52.6,409.3,52.7"/>
<path class="st3" d="M409.5,52.7h1l0,0H409.5L409.5,52.7L409.5,52.7"/>
<path class="st4" d="M485.2,43.8v-0.5l0,0V43.8L485.2,43.8"/>
<path class="st5" d="M485.2,43.8L485.2,43.8v0.3C485.2,44.1,485.2,44,485.2,43.8"/>
<path class="st6" d="M485.3,43.4L485.3,43.4c0-0.1,0-0.2,0-0.3V43.4z"/>
<path class="st7" d="M409.5,52.7L409.5,52.7h-0.2l0,0H409.5"/>
<path class="st8" d="M410.5,52.7L410.5,52.7c0.1,0,0.1,0,0.2,0H410.5z"/>
<path d="M449.3,43.6v-7.7c-0.1-0.5,0.3-0.9,0.8-1c0.1,0,0.2,0,0.2,0c2.1,0,4.1,0,6.2,0c2.3,0,4.4,0.9,6.1,2.5c1.1,1,1.8,2.4,2.1,3.9
	c0.4,1.8,0.4,3.7-0.2,5.5c-0.7,2.2-2.4,4-4.6,4.8c-1.2,0.5-2.5,0.8-3.9,0.8c-1.9,0-3.8,0-5.8,0c-0.5,0.1-0.9-0.3-1-0.8
	c0-0.1,0-0.2,0-0.2L449.3,43.6"/>
<path d="M445.9,52.1c-0.2,0.2-0.4,0.3-0.6,0.2c-0.4,0-0.8,0-1.2,0h-14.6c-0.3,0-0.5-0.1-0.7-0.3c0.1-0.2,0.3-0.4,0.5-0.6
	c0.8-0.8,1.6-1.7,2.4-2.5c0.6-0.7,1.3-1.4,1.9-2l2.7-2.8c0.3-0.3,0.6-0.6,0.8-0.9c0-0.1,0.1-0.1,0.2-0.1c0.1,0,0.2,0.1,0.3,0.2
	c0.3,0.3,0.6,0.6,0.9,0.9l1.7,1.8l2.7,2.8c0.6,0.7,1.3,1.3,1.9,2c0.3,0.4,0.7,0.7,1,1.1C445.9,52,445.9,52,445.9,52.1"/>
<g class="st9">
	<g>
		<defs>
			<rect id="SVGID_1_" x="437.4" y="34.9" width="8.8" height="17.3"/>
		</defs>
		<clipPath id="SVGID_2_">
			<use xlink:href="#SVGID_1_"  style="overflow:visible;"/>
		</clipPath>
		<g class="st10">
			<path d="M445.9,52.1c-1-1-1.9-2-2.9-3l-2.6-2.8l-2.9-3.1l-0.2-0.2l0,0l0,0c0.8-0.9,1.7-1.8,2.5-2.7c1.7-1.8,3.3-3.5,5-5.3
				c0.2-0.2,0.5-0.3,0.8-0.2c0.3,0.1,0.5,0.4,0.5,0.7v15.8C446.2,51.7,446.1,52,445.9,52.1"/>
		</g>
	</g>
</g>
<path d="M437.4,43L437.4,43c-0.4,0.4-0.8,0.9-1.2,1.3c-1.2,1.3-2.4,2.5-3.6,3.8l-3.2,3.5l-0.5,0.5c-0.1-0.1-0.2-0.3-0.2-0.4
	c0-0.1,0-0.2,0-0.3v-7.1c0-2.8,0-5.7,0-8.5c0-0.4,0.1-0.7,0.4-0.8c0.3-0.1,0.7,0,0.9,0.2l4,4.2c1.1,1.2,2.2,2.3,3.3,3.5L437.4,43"/>
<path d="M420.8,43.6v-7.8c-0.1-0.4,0.2-0.9,0.6-1c0.1,0,0.2,0,0.3,0h2.7c0.5-0.1,0.9,0.2,0.9,0.7c0,0.1,0,0.2,0,0.2v15.7
	c0,0.5-0.3,0.9-0.8,0.9c0,0-0.1,0-0.1,0c-0.9,0-1.9,0-2.8,0c-0.5,0-0.9-0.3-0.9-0.8c0,0,0-0.1,0-0.1
	C420.8,48.8,420.8,46.2,420.8,43.6"/>
<g>
	<defs>
		<rect id="SVGID_3_" x="297.7" y="31.8" width="85.6" height="21.6"/>
	</defs>
	<clipPath id="SVGID_4_">
		<use xlink:href="#SVGID_3_"  style="overflow:visible;"/>
	</clipPath>
	<g class="st11">
		
			<image style="overflow:visible;enable-background:new    ;" width="1724" height="435" xlink:href="5FDC5334A38CEF07.png"  transform="matrix(4.988506e-02 0 0 4.988506e-02 297.7941 31.77)">
		</image>
	</g>
</g>
<g>
	<defs>
		<rect id="SVGID_5_" x="207.1" y="25.1" width="56.5" height="38"/>
	</defs>
	<clipPath id="SVGID_6_">
		<use xlink:href="#SVGID_5_"  style="overflow:visible;"/>
	</clipPath>
	<g class="st12">
		<g>
			<defs>
				<rect id="SVGID_7_" x="207.1" y="25.1" width="56.5" height="38"/>
			</defs>
			<clipPath id="SVGID_8_">
				<use xlink:href="#SVGID_7_"  style="overflow:visible;"/>
			</clipPath>
			<g class="st13">
				
					<image style="overflow:visible;enable-background:new    ;" width="1032" height="696" xlink:href="5FDC5334A38CEF05.png"  transform="matrix(4.992816e-02 0 0 4.992816e-02 207.1371 25.14)">
				</image>
			</g>
		</g>
	</g>
</g>
<path d="M133.5,34.3c-0.3,1.1-0.5,2.3-0.8,3.4c-1.7,6.4-3.4,12.8-5.1,19.2c-0.1,0.5-0.3,0.7-0.8,0.6c-0.7,0-1.3-0.1-2-0.3
	c-1.2-0.3-2.1-1.2-2.5-2.4c-0.5-1.7-1-3.5-1.4-5.2c-0.7-2.8-1.4-5.7-2.1-8.5c-0.1-0.4-0.1-0.9-0.7-0.9s-0.6,0.5-0.7,0.9
	c-1,3.9-2,7.9-3,11.8c-0.1,0.5-0.3,0.9-0.4,1.4c-0.5,2-2.3,3.4-4.3,3.2c-0.2,0-0.3,0-0.5,0c-0.4,0.1-0.6-0.1-0.7-0.5
	c-1.9-7.4-3.9-14.7-5.9-22.1c0-0.1-0.1-0.2-0.1-0.2c0-0.2-0.1-0.4,0.3-0.3c0.4,0,0.9,0,1.3,0c0,0,0.1,0.1,0.1,0.1
	c1.8,0.2,3.3,1.7,3.6,3.5c0.9,3.8,1.9,7.5,2.9,11.3c0,0.2,0.1,0.3,0.2,0.7c0.7-2.7,1.4-5.3,2.1-7.9c0.4-1.5,0.9-3,1.5-4.5
	c0.6-1.4,2.1-2.2,3.6-2.1c1.5-0.1,3,0.7,3.7,2.1c0.3,0.6,0.5,1.2,0.7,1.8c0.7,2.5,1.3,5.1,2,7.6l0.8,3.1c1.1-4.2,2.2-8.3,3.2-12.4
	c0.3-1.5,1.5-2.7,3-3c0.2,0,0.4-0.1,0.6-0.2L133.5,34.3z"/>
<path d="M162.2,34.3c0,0.2-0.1,0.4-0.2,0.6c-2.4,3.5-4.8,7.1-7.2,10.6c-0.2,0.3-0.2,0.7,0,0.9c2.4,3.5,4.7,7,7.1,10.5
	c0.1,0.2,0.2,0.3,0.4,0.6c-2.1,0.1-4.1,0.2-5.5-1.5c-1.2-1.5-2.4-3.1-3.5-4.7c-0.3-0.4-0.6-0.9-1-1.4c-0.6-0.8-0.8-0.8-1.4,0
	c-0.9,1.3-1.9,2.7-2.8,4.1c-0.4,0.6-0.8,1.1-1.2,1.6c-0.9,1.2-2.4,1.9-3.9,1.9c-0.6,0-1.2,0-2,0c0.2-0.3,0.3-0.5,0.4-0.6
	c2.4-3.5,4.7-7,7.1-10.5c0.2-0.2,0.2-0.6,0-0.9c-2.4-3.5-4.7-7.1-7.1-10.7c-0.1-0.2-0.4-0.3-0.1-0.6h2.5c2,0.3,3.1,1.7,4.2,3.2
	s2.1,3,3.2,4.5c0.4,0.6,0.8,0.6,1.2,0c0.3-0.4,0.6-0.9,0.9-1.3c1.2-1.7,2.5-3.3,3.7-5c0.6-0.8,1.6-1.3,2.6-1.4
	c0.1,0,0.2-0.1,0.2-0.1L162.2,34.3z"/>
<path d="M139.2,34.3c0.1,2.2-0.5,3.2-2.5,4c-0.5,0.2-1,0.5-1.6,0.8c-0.1-1.3,0.1-2.5,0.7-3.7c0.4-0.6,1.1-1,1.8-1.1
	c0.1,0,0.3-0.1,0.4-0.1L139.2,34.3z"/>
<path d="M139.2,38.1c0,0.2,0,0.3,0,0.5c0,5.2,0,10.4,0,15.7c0,2.8-1.9,3.3-3.9,3.2c-0.1,0-0.2-0.2-0.3-0.3c0-0.1,0-0.3,0-0.4
	c0-4.9,0-9.8,0-14.7c-0.1-1,0.5-2,1.5-2.3C137.5,39.5,138.4,38.9,139.2,38.1"/>
<text transform="matrix(1 0 0 1 10.65 123.79)" class="st14 st15">Aanmeld-</text>
<text transform="matrix(1 0 0 1 18.19 144.19)" class="st14 st15">proces</text>
<text transform="matrix(1 0 0 1 17.36 210.66)" class="st14 st15">P</text>
<text transform="matrix(1 0 0 1 24.82 210.66)" class="st14 st15">ortal-</text>
<text transform="matrix(1 0 0 1 10.31 231.06)" class="st14 st15">omg</text>
<text transform="matrix(1 0 0 1 36.52 231.06)" class="st14 st15">e</text>
<text transform="matrix(1 0 0 1 43.66 231.06)" class="st14 st15">ving</text>
<text transform="matrix(1 0 0 1 4.4 292.68)" class="st14 st15">Mar</text>
<text transform="matrix(1 0 0 1 30.48 292.68)" class="st14 st15">k</text>
<text transform="matrix(1 0 0 1 37.19 292.68)" class="st14 st15">eting-</text>
<text transform="matrix(1 0 0 1 10.3 313.08)" class="st14 st15">omg</text>
<text transform="matrix(1 0 0 1 36.51 313.08)" class="st14 st15">e</text>
<text transform="matrix(1 0 0 1 43.65 313.08)" class="st14 st15">ving</text>
<text transform="matrix(1 0 0 1 12.56 370.62)" class="st14 st15">w</text>
<text transform="matrix(1 0 0 1 22.61 370.62)" class="st14 st15">ebsite-</text>
<text transform="matrix(1 0 0 1 20.41 391.02)" class="st14 st15">bou</text>
<text transform="matrix(1 0 0 1 42.71 391.02)" class="st14 st15">w</text>
<text transform="matrix(1 0 0 1 52.93 391.02)" class="st14 st15">-</text>
<text transform="matrix(1 0 0 1 16.92 411.42)" class="st14 st15">se</text>
<text transform="matrix(1 0 0 1 30.86 411.42)" class="st14 st15">r</text>
<text transform="matrix(1 0 0 1 37.81 411.42)" class="st14 st15">vice</text>
<text transform="matrix(1 0 0 1 17.52 464.76)" class="st14 st15">Edito</text>
<text transform="matrix(1 0 0 1 48.87 464.76)" class="st14 st15">r</text>
<text transform="matrix(1 0 0 1 55.82 464.76)" class="st14 st15">-</text>
<text transform="matrix(1 0 0 1 10.3 485.16)" class="st14 st15">omg</text>
<text transform="matrix(1 0 0 1 36.52 485.16)" class="st14 st15">e</text>
<text transform="matrix(1 0 0 1 43.66 485.16)" class="st14 st15">ving</text>
<text transform="matrix(1 0 0 1 9.29 560.65)" class="st14 st15">Eindstand</text>
<text transform="matrix(1 0 0 1 327.96 137.18)" class="st14 st16">+-</text>
<text transform="matrix(1 0 0 1 224.32 137.18)" class="st14 st16">+-</text>
<text transform="matrix(1 0 0 1 537.65 137.18)" class="st14 st16">+-</text>
<text transform="matrix(1 0 0 1 122.44 308.31)" class="st14 st16">+-</text>
<text transform="matrix(1 0 0 1 224.32 479.45)" class="st14 st16">+-</text>
<text transform="matrix(1 0 0 1 122.44 479.45)" class="st14 st16">+-</text>
<text transform="matrix(1 0 0 1 437.01 479.45)" class="st14 st16">+-</text>
<text transform="matrix(1 0 0 1 127.49 137.18)" class="st14 st16">+</text>
<text transform="matrix(1 0 0 1 229.37 222.27)" class="st14 st16">+</text>
<text transform="matrix(1 0 0 1 542.7 479.45)" class="st14 st16">+</text>
<text transform="matrix(1 0 0 1 442.98 137.18)" class="st14 st16">-</text>
<text transform="matrix(1 0 0 1 128.41 222.24)" class="st14 st16">-</text>
<text transform="matrix(1 0 0 1 442.98 222.24)" class="st14 st16">-</text>
<text transform="matrix(1 0 0 1 333.93 222.24)" class="st14 st16">-</text>
<text transform="matrix(1 0 0 1 230.29 308.31)" class="st14 st16">-</text>
<text transform="matrix(1 0 0 1 333.93 308.31)" class="st14 st16">-</text>
<text transform="matrix(1 0 0 1 442.98 308.31)" class="st14 st16">-</text>
<text transform="matrix(1 0 0 1 543.62 308.31)" class="st14 st16">-</text>
<text transform="matrix(1 0 0 1 128.41 393.88)" class="st14 st16">-</text>
<text transform="matrix(1 0 0 1 230.29 393.88)" class="st14 st16">-</text>
<text transform="matrix(1 0 0 1 333.93 393.88)" class="st14 st16">-</text>
<text transform="matrix(1 0 0 1 442.98 393.88)" class="st14 st16">-</text>
<text transform="matrix(1 0 0 1 543.62 393.88)" class="st14 st16">-</text>
<text transform="matrix(1 0 0 1 333.93 479.45)" class="st14 st16">-</text>
<text transform="matrix(1 0 0 1 531.58 220.59)" class="st14 st17">n</text>
<text transform="matrix(1 0 0 1 540.42 220.59)" class="st14 st17">.v</text>
<text transform="matrix(1 0 0 1 551.24 220.59)" class="st14 st17 st18">.</text>
<text transform="matrix(1 0 0 1 554.34 220.59)" class="st14 st17">t.</text>
<text transform="matrix(1 0 0 1 230.09 559)" class="st14 st19">4</text>
<text transform="matrix(1 0 0 1 128.21 559)" class="st14 st19">4</text>
<text transform="matrix(1 0 0 1 443.88 559)" class="st14 st19">1</text>
<text transform="matrix(1 0 0 1 543.57 559)" class="st14 st19">3</text>
<text transform="matrix(1 0 0 1 334.83 559)" class="st14 st19">1</text>
</svg>
